<svg width="370" height="160" viewBox="0 0 370 160" fill="none" xmlns="http://www.w3.org/2000/svg">
<path d="M11.4419 9.37585C16.4931 9.91901 21.916 17.2468 23.9956 20.8427C31.8124 19.8168 38.126 20.4152 40.3062 20.8427C43.9893 15.562 50.6798 9.6022 54.8892 10.8846C59.0983 12.1672 58.1217 25.7452 58.1216 29.1405C58.1216 32.5352 57.833 33.0019 59.0981 36.6093C64.5681 52.2064 58.1883 57.0235 57.52 58.788C57.127 59.8259 56.242 61.2775 61.2778 65.5018C66.314 69.7263 71.3505 68.6705 85.0308 82.7772C96.6003 95.1625 97.56 117.477 96.5728 127.49C96.5531 127.692 96.7378 127.848 96.936 127.804C108.551 125.223 114.665 114.268 109.686 104.126C105.657 95.9186 110.913 92.3078 114.045 91.5282C119.382 90.0949 130.056 99.2986 126.523 119.365C122.193 137.651 104.424 142.071 96.0806 141.996H52.2583C51.0556 141.996 50.9046 141.996 50.5288 141.619C47.6329 133.016 54.0354 129.881 57.981 129.303C58.1917 129.272 58.3101 129.035 58.2134 128.846C51.1448 114.979 60.3916 103.428 66.6909 98.7313C66.9364 98.548 66.7891 98.1632 66.4858 98.2079C58.8846 99.329 53.5798 106.688 51.356 111.368C49.5397 115.19 45.0077 132.499 42.8062 141.316C42.7059 141.718 42.347 141.996 41.9331 141.996H32.4136C32.1912 141.996 26.5398 142.065 25.8599 141.674C25.8108 141.645 25.7908 141.59 25.7759 141.535C24.1141 135.46 28.0918 132.398 30.7935 131.412C31.1699 131.275 31.4434 130.932 31.4487 130.531C31.5992 118.804 28.4673 108.618 26.5815 104.258C26.4707 104.003 26.1342 104.035 26.0913 104.31C25.4535 108.402 25.3275 121.389 25.3481 127.955C25.3483 128.058 25.2948 128.149 25.2095 128.206C20.7892 131.149 19.6986 137.219 19.6841 140.66C19.6819 141.18 19.2706 141.619 18.7505 141.619H5.57471C5.25214 141.619 4.94996 141.445 4.80322 141.158C1.71795 135.118 7.08718 130.719 10.2397 129.247C10.3901 124.193 10.1646 112.651 8.06006 106.918C-0.659346 87.1531 3.47432 70.0279 4.00049 68.2928C4.47796 66.7182 4.7085 64.398 4.18506 62.0653C4.07832 61.5897 3.85824 61.1458 3.6001 60.7323C-3.28394 49.7071 1.25461 36.9924 4.45166 31.9325C3.7 27.2554 5.12821 8.69781 11.4419 9.37585ZM29.9692 49.8251C29.4855 49.8581 29.1374 50.2773 29.1763 50.7606C29.2922 52.1964 30.0602 54.3971 32.4937 55.9188C32.8917 56.1677 33.404 56.116 33.7427 55.7909C34.7953 54.7795 36.1826 52.9944 36.4897 50.9774C36.578 50.3966 36.1181 49.912 35.5308 49.9237C34.7334 49.94 33.8153 50.0397 33.2026 50.1874C32.9197 50.2555 32.6216 50.2658 32.3442 50.1776C31.7782 49.9977 30.8834 49.7627 29.9692 49.8251ZM20.4614 39.1737C18.5935 39.1737 17.0789 40.8623 17.0786 42.9452C17.0786 45.0284 18.5933 46.7177 20.4614 46.7177C22.3294 46.7174 23.8433 45.0282 23.8433 42.9452C23.8429 40.8625 22.3292 39.1739 20.4614 39.1737ZM44.8159 39.1737C42.948 39.1737 41.4334 40.8623 41.4331 42.9452C41.4331 45.0284 42.9478 46.7177 44.8159 46.7177C46.6838 46.7174 48.1978 45.0282 48.1978 42.9452C48.1975 40.8625 46.6837 39.174 44.8159 39.1737Z" fill="#111111"/>
<path d="M114.11 18.2425H127.396V56.7936C127.378 60.4055 126.516 63.5636 124.81 66.268C123.104 68.9542 120.744 71.0415 117.731 72.5298C114.736 74.0182 111.27 74.7623 107.331 74.7623C103.846 74.7623 100.679 74.1543 97.8294 72.9382C94.998 71.7221 92.7383 69.8345 91.0503 67.2753C89.3805 64.7162 88.5547 61.44 88.5728 57.447H101.995C102.049 58.8809 102.322 60.106 102.812 61.1224C103.32 62.1207 104.019 62.8739 104.908 63.3821C105.797 63.8903 106.859 64.1444 108.093 64.1444C109.382 64.1444 110.471 63.8722 111.36 63.3277C112.25 62.765 112.921 61.9392 113.375 60.8502C113.847 59.7611 114.092 58.409 114.11 56.7936V18.2425ZM162.837 55.9496V32.1819H176.123V74H163.436V66.2136H163C162.074 68.7727 160.495 70.8056 158.263 72.312C156.049 73.8003 153.371 74.5445 150.231 74.5445C147.382 74.5445 144.877 73.8911 142.717 72.5843C140.557 71.2775 138.878 69.4534 137.681 67.112C136.483 64.7525 135.875 61.9936 135.856 58.8355V32.1819H149.17V56.2219C149.188 58.4906 149.787 60.2784 150.966 61.5852C152.146 62.8921 153.753 63.5455 155.785 63.5455C157.11 63.5455 158.299 63.2551 159.352 62.6743C160.423 62.0753 161.267 61.2132 161.884 60.0879C162.519 58.9444 162.837 57.565 162.837 55.9496ZM184.597 74V32.1819H197.256V39.8594H197.719C198.59 37.3184 200.061 35.3128 202.13 33.8426C204.199 32.3725 206.667 31.6374 209.535 31.6374C212.439 31.6374 214.926 32.3815 216.995 33.8699C219.064 35.3582 220.38 37.3547 220.942 39.8594H221.378C222.158 37.3728 223.683 35.3854 225.952 33.8971C228.221 32.3906 230.898 31.6374 233.983 31.6374C237.94 31.6374 241.153 32.9079 243.621 35.4489C246.09 37.9718 247.324 41.4385 247.324 45.849V74H234.011V48.8982C234.011 46.811 233.475 45.2228 232.404 44.1338C231.333 43.0266 229.945 42.4731 228.239 42.4731C226.406 42.4731 224.963 43.072 223.91 44.2699C222.875 45.4497 222.358 47.0378 222.358 49.0344V74H209.562V48.7621C209.562 46.82 209.036 45.2863 207.983 44.161C206.93 43.0357 205.542 42.4731 203.818 42.4731C202.656 42.4731 201.631 42.7544 200.741 43.317C199.852 43.8616 199.153 44.642 198.645 45.6584C198.155 46.6748 197.91 47.8728 197.91 49.2522V74H184.597ZM255.573 74V18.2425H268.886V39.3421H269.158C269.703 38.0716 270.474 36.8465 271.473 35.6667C272.489 34.487 273.778 33.525 275.339 32.7808C276.918 32.0185 278.805 31.6374 281.001 31.6374C283.906 31.6374 286.619 32.3997 289.142 33.9243C291.683 35.4489 293.734 37.7994 295.295 40.9757C296.856 44.152 297.636 48.1995 297.636 53.1182C297.636 57.8554 296.883 61.8212 295.376 65.0156C293.888 68.2101 291.873 70.6059 289.332 72.2031C286.81 73.8003 284.005 74.599 280.92 74.599C278.814 74.599 276.99 74.2541 275.448 73.5644C273.905 72.8747 272.607 71.9672 271.554 70.8419C270.52 69.7165 269.721 68.5096 269.158 67.2209H268.75V74H255.573ZM268.614 53.0909C268.614 55.3416 268.913 57.3018 269.512 58.9716C270.13 60.6414 271.01 61.9392 272.153 62.8648C273.315 63.7723 274.703 64.2261 276.319 64.2261C277.952 64.2261 279.341 63.7723 280.484 62.8648C281.628 61.9392 282.49 60.6414 283.071 58.9716C283.67 57.3018 283.969 55.3416 283.969 53.0909C283.969 50.8403 283.67 48.8892 283.071 47.2375C282.49 45.5858 281.628 44.3062 280.484 43.3987C279.359 42.4912 277.97 42.0375 276.319 42.0375C274.685 42.0375 273.297 42.4821 272.153 43.3715C271.01 44.2609 270.13 45.5314 269.512 47.183C268.913 48.8347 268.614 50.804 268.614 53.0909ZM317.926 18.2425V74H304.613V18.2425H317.926ZM345.948 74.7895C341.573 74.7895 337.798 73.9274 334.622 72.2031C331.464 70.4607 329.032 67.9832 327.325 64.7706C325.637 61.5399 324.793 57.7011 324.793 53.2543C324.793 48.9345 325.647 45.1593 327.353 41.9286C329.059 38.6797 331.464 36.1568 334.567 34.3599C337.671 32.5449 341.328 31.6374 345.539 31.6374C348.516 31.6374 351.238 32.1002 353.707 33.0259C356.175 33.9515 358.308 35.3219 360.105 37.1369C361.902 38.9519 363.299 41.1935 364.297 43.8616C365.296 46.5115 365.795 49.5516 365.795 52.982V56.3035H329.449V48.5715H353.407C353.389 47.1558 353.053 45.8944 352.4 44.7872C351.747 43.68 350.848 42.8179 349.705 42.2008C348.579 41.5655 347.282 41.2479 345.811 41.2479C344.323 41.2479 342.989 41.5837 341.809 42.2553C340.63 42.9087 339.695 43.8071 339.005 44.9506C338.315 46.0759 337.952 47.3555 337.916 48.7893V56.6575C337.916 58.3636 338.252 59.861 338.923 61.1496C339.595 62.4202 340.548 63.4093 341.782 64.1172C343.016 64.8251 344.486 65.179 346.193 65.179C347.372 65.179 348.443 65.0156 349.405 64.6889C350.367 64.3622 351.193 63.8812 351.883 63.246C352.572 62.6107 353.09 61.8303 353.435 60.9046L365.659 61.2585C365.15 63.9992 364.034 66.386 362.31 68.4188C360.604 70.4335 358.362 72.0035 355.585 73.1288C352.808 74.236 349.596 74.7895 345.948 74.7895Z" fill="#111111"/>
<path d="M140.766 141.081V85.3236H154.243V108.901H154.978L173.409 85.3236H189.282L169.516 110.208L189.636 141.081H173.518L159.633 119.165L154.243 125.971V141.081H140.766ZM206.386 141.789C203.718 141.789 201.349 141.344 199.28 140.455C197.229 139.547 195.605 138.186 194.407 136.371C193.227 134.538 192.637 132.242 192.637 129.483C192.637 127.16 193.046 125.2 193.863 123.602C194.679 122.005 195.805 120.707 197.238 119.709C198.672 118.711 200.324 117.958 202.193 117.449C204.063 116.923 206.059 116.569 208.183 116.388C210.561 116.17 212.476 115.943 213.928 115.707C215.38 115.453 216.432 115.099 217.086 114.645C217.757 114.173 218.093 113.511 218.093 112.658V112.522C218.093 111.124 217.612 110.044 216.65 109.282C215.688 108.52 214.39 108.138 212.757 108.138C210.996 108.138 209.581 108.52 208.51 109.282C207.439 110.044 206.758 111.097 206.468 112.44L194.189 112.004C194.552 109.463 195.487 107.195 196.993 105.198C198.518 103.183 200.605 101.604 203.255 100.461C205.923 99.2992 209.127 98.7184 212.866 98.7184C215.534 98.7184 217.993 99.0361 220.244 99.6713C222.495 100.288 224.455 101.196 226.125 102.394C227.794 103.574 229.083 105.026 229.991 106.75C230.916 108.474 231.379 110.443 231.379 112.658V141.081H218.855V135.255H218.529C217.785 136.671 216.832 137.868 215.67 138.849C214.527 139.829 213.174 140.564 211.613 141.054C210.071 141.544 208.328 141.789 206.386 141.789ZM210.497 133.077C211.931 133.077 213.22 132.786 214.363 132.206C215.525 131.625 216.45 130.826 217.14 129.81C217.83 128.775 218.175 127.577 218.175 126.216V122.241C217.794 122.441 217.331 122.622 216.786 122.786C216.26 122.949 215.679 123.103 215.044 123.248C214.409 123.394 213.755 123.521 213.084 123.63C212.412 123.739 211.768 123.838 211.151 123.929C209.898 124.129 208.827 124.437 207.938 124.855C207.067 125.272 206.395 125.817 205.923 126.488C205.47 127.142 205.243 127.922 205.243 128.83C205.243 130.209 205.733 131.262 206.713 131.988C207.711 132.714 208.973 133.077 210.497 133.077ZM263.124 99.2629V109.064H236.742V99.2629H263.124ZM242.269 89.244H255.582V127.931C255.582 128.748 255.709 129.41 255.964 129.919C256.236 130.409 256.626 130.763 257.134 130.98C257.642 131.18 258.25 131.28 258.958 131.28C259.467 131.28 260.002 131.235 260.565 131.144C261.145 131.035 261.581 130.944 261.871 130.872L263.886 140.482C263.251 140.664 262.352 140.89 261.191 141.163C260.047 141.435 258.677 141.607 257.08 141.68C253.958 141.825 251.281 141.462 249.048 140.591C246.834 139.702 245.137 138.322 243.957 136.453C242.796 134.583 242.233 132.233 242.269 129.401V89.244Z" fill="#111111"/>
</svg>
